<mxfile host="app.diagrams.net" modified="2022-04-07T09:30:23.411Z" agent="5.0 (Macintosh; Intel Mac OS X 10_15_7) AppleWebKit/537.36 (KHTML, like Gecko) Chrome/98.0.4758.109 Safari/537.36" etag="UWmkOsttMzCOoGMBVW52" version="17.4.0" type="github">
  <diagram name="Page-1" id="e3a06f82-3646-2815-327d-82caf3d4e204">
    <mxGraphModel dx="1351" dy="847" grid="0" gridSize="10" guides="1" tooltips="1" connect="1" arrows="1" fold="1" page="1" pageScale="1.5" pageWidth="1169" pageHeight="826" background="none" math="0" shadow="0">
      <root>
        <mxCell id="0" style=";html=1;" />
        <mxCell id="1" style=";html=1;" parent="0" />
        <mxCell id="8lfY5L09jLnos-yv3J4h-9" value="&lt;font style=&quot;font-size: 18px&quot;&gt;PrivateSubnet-1&lt;/font&gt;" style="points=[[0,0],[0.25,0],[0.5,0],[0.75,0],[1,0],[1,0.25],[1,0.5],[1,0.75],[1,1],[0.75,1],[0.5,1],[0.25,1],[0,1],[0,0.75],[0,0.5],[0,0.25]];outlineConnect=0;gradientColor=none;html=1;whiteSpace=wrap;fontSize=12;fontStyle=0;container=1;pointerEvents=0;collapsible=0;recursiveResize=0;shape=mxgraph.aws4.group;grIcon=mxgraph.aws4.group_security_group;grStroke=0;strokeColor=#147EBA;fillColor=#E6F2F8;verticalAlign=top;align=left;spacingLeft=30;fontColor=#147EBA;dashed=0;strokeWidth=3;" vertex="1" parent="1">
          <mxGeometry x="360" y="240" width="360" height="200" as="geometry" />
        </mxCell>
        <mxCell id="8lfY5L09jLnos-yv3J4h-6" value="&lt;font style=&quot;font-size: 24px&quot;&gt;VPC-1&lt;/font&gt;" style="sketch=0;outlineConnect=0;gradientColor=none;html=1;whiteSpace=wrap;fontSize=12;fontStyle=0;shape=mxgraph.aws4.group;grIcon=mxgraph.aws4.group_vpc;strokeColor=#879196;fillColor=none;verticalAlign=top;align=left;spacingLeft=30;fontColor=#879196;dashed=0;strokeWidth=4;" vertex="1" parent="1">
          <mxGeometry x="320" y="160" width="440" height="320" as="geometry" />
        </mxCell>
        <mxCell id="8lfY5L09jLnos-yv3J4h-13" value="&lt;font style=&quot;font-size: 24px&quot;&gt;VPC-2&lt;/font&gt;" style="sketch=0;outlineConnect=0;gradientColor=none;html=1;whiteSpace=wrap;fontSize=12;fontStyle=0;shape=mxgraph.aws4.group;grIcon=mxgraph.aws4.group_vpc;strokeColor=#879196;fillColor=none;verticalAlign=top;align=left;spacingLeft=30;fontColor=#879196;dashed=0;strokeWidth=4;" vertex="1" parent="1">
          <mxGeometry x="877" y="160" width="440" height="320" as="geometry" />
        </mxCell>
        <mxCell id="8lfY5L09jLnos-yv3J4h-12" value="&lt;font style=&quot;font-size: 18px&quot;&gt;PrivateSubnet-2&lt;/font&gt;" style="points=[[0,0],[0.25,0],[0.5,0],[0.75,0],[1,0],[1,0.25],[1,0.5],[1,0.75],[1,1],[0.75,1],[0.5,1],[0.25,1],[0,1],[0,0.75],[0,0.5],[0,0.25]];outlineConnect=0;gradientColor=none;html=1;whiteSpace=wrap;fontSize=12;fontStyle=0;container=1;pointerEvents=0;collapsible=0;recursiveResize=0;shape=mxgraph.aws4.group;grIcon=mxgraph.aws4.group_security_group;grStroke=0;strokeColor=#147EBA;fillColor=#E6F2F8;verticalAlign=top;align=left;spacingLeft=30;fontColor=#147EBA;dashed=0;strokeWidth=3;" vertex="1" parent="1">
          <mxGeometry x="917" y="240" width="360" height="200" as="geometry" />
        </mxCell>
        <mxCell id="8lfY5L09jLnos-yv3J4h-30" value="&lt;font color=&quot;#000000&quot;&gt;10.2.0.0/24&lt;/font&gt;" style="text;html=1;align=center;verticalAlign=middle;resizable=0;points=[];autosize=1;strokeColor=none;fillColor=none;fontSize=18;fontColor=#99CCFF;" vertex="1" parent="8lfY5L09jLnos-yv3J4h-12">
          <mxGeometry x="250" y="8" width="100" height="26" as="geometry" />
        </mxCell>
        <mxCell id="8lfY5L09jLnos-yv3J4h-22" style="rounded=0;orthogonalLoop=1;jettySize=auto;html=1;fontSize=18;fontColor=#FF8000;startArrow=classic;startFill=1;strokeWidth=2;" edge="1" parent="1" source="8lfY5L09jLnos-yv3J4h-15" target="8lfY5L09jLnos-yv3J4h-21">
          <mxGeometry relative="1" as="geometry">
            <mxPoint x="770" y="524.5496909177366" as="targetPoint" />
          </mxGeometry>
        </mxCell>
        <mxCell id="8lfY5L09jLnos-yv3J4h-25" style="edgeStyle=none;rounded=0;orthogonalLoop=1;jettySize=auto;html=1;fontSize=18;fontColor=#FF8000;startArrow=classic;startFill=1;strokeWidth=2;" edge="1" parent="1" source="8lfY5L09jLnos-yv3J4h-15" target="8lfY5L09jLnos-yv3J4h-24">
          <mxGeometry relative="1" as="geometry" />
        </mxCell>
        <mxCell id="8lfY5L09jLnos-yv3J4h-15" value="&lt;font style=&quot;font-size: 16px&quot; color=&quot;#ff8000&quot;&gt;&lt;b&gt;EC2-Prv1&lt;/b&gt;&lt;/font&gt;" style="outlineConnect=0;dashed=0;verticalLabelPosition=bottom;verticalAlign=top;align=center;html=1;shape=mxgraph.aws3.ec2;fillColor=#F58534;gradientColor=none;fontSize=18;strokeWidth=4;" vertex="1" parent="1">
          <mxGeometry x="500" y="280" width="78.25" height="93" as="geometry" />
        </mxCell>
        <mxCell id="8lfY5L09jLnos-yv3J4h-16" value="&lt;font style=&quot;font-size: 16px&quot; color=&quot;#ff8000&quot;&gt;&lt;b&gt;EC2-Prv2&lt;/b&gt;&lt;/font&gt;" style="outlineConnect=0;dashed=0;verticalLabelPosition=bottom;verticalAlign=top;align=center;html=1;shape=mxgraph.aws3.ec2;fillColor=#F58534;gradientColor=none;fontSize=18;strokeWidth=4;" vertex="1" parent="1">
          <mxGeometry x="1058.75" y="293.5" width="76.5" height="93" as="geometry" />
        </mxCell>
        <mxCell id="8lfY5L09jLnos-yv3J4h-23" style="edgeStyle=none;rounded=0;orthogonalLoop=1;jettySize=auto;html=1;fontSize=18;fontColor=#FF8000;startArrow=classic;startFill=1;strokeWidth=2;" edge="1" parent="1" source="8lfY5L09jLnos-yv3J4h-21" target="8lfY5L09jLnos-yv3J4h-16">
          <mxGeometry relative="1" as="geometry" />
        </mxCell>
        <mxCell id="8lfY5L09jLnos-yv3J4h-21" value="&lt;b&gt;VPC Peering&lt;/b&gt;" style="outlineConnect=0;dashed=0;verticalLabelPosition=bottom;verticalAlign=top;align=center;html=1;shape=mxgraph.aws3.vpc_peering;fillColor=#F58534;gradientColor=none;fontSize=18;fontColor=#FF8000;strokeWidth=4;aspect=fixed;" vertex="1" parent="1">
          <mxGeometry x="790" y="309" width="64" height="64" as="geometry" />
        </mxCell>
        <mxCell id="8lfY5L09jLnos-yv3J4h-31" style="edgeStyle=none;rounded=0;orthogonalLoop=1;jettySize=auto;html=1;fontSize=18;fontColor=#000000;startArrow=classic;startFill=1;strokeWidth=2;" edge="1" parent="1" source="8lfY5L09jLnos-yv3J4h-24" target="8lfY5L09jLnos-yv3J4h-26">
          <mxGeometry relative="1" as="geometry" />
        </mxCell>
        <mxCell id="8lfY5L09jLnos-yv3J4h-24" value="&lt;b&gt;NAT Gateway&lt;/b&gt;" style="outlineConnect=0;dashed=0;verticalLabelPosition=bottom;verticalAlign=top;align=center;html=1;shape=mxgraph.aws3.vpc_nat_gateway;fillColor=#F58534;gradientColor=none;fontSize=18;fontColor=#FF8000;strokeWidth=4;" vertex="1" parent="1">
          <mxGeometry x="505.5" y="440" width="69" height="72" as="geometry" />
        </mxCell>
        <mxCell id="8lfY5L09jLnos-yv3J4h-26" value="&lt;b&gt;&lt;font color=&quot;#99ccff&quot;&gt;Internet&lt;/font&gt;&lt;/b&gt;" style="aspect=fixed;perimeter=ellipsePerimeter;html=1;align=center;shadow=0;dashed=0;spacingTop=3;image;image=img/lib/active_directory/internet_cloud.svg;fontSize=18;fontColor=#FF8000;strokeWidth=4;" vertex="1" parent="1">
          <mxGeometry x="672" y="533" width="86" height="54.18" as="geometry" />
        </mxCell>
        <mxCell id="8lfY5L09jLnos-yv3J4h-27" value="&lt;font color=&quot;#000000&quot;&gt;10.1.0.0/16&lt;/font&gt;" style="text;html=1;align=center;verticalAlign=middle;resizable=0;points=[];autosize=1;strokeColor=none;fillColor=none;fontSize=18;fontColor=#99CCFF;" vertex="1" parent="1">
          <mxGeometry x="651" y="168" width="100" height="26" as="geometry" />
        </mxCell>
        <mxCell id="8lfY5L09jLnos-yv3J4h-28" value="&lt;font color=&quot;#000000&quot;&gt;10.2.0.0/16&lt;/font&gt;" style="text;html=1;align=center;verticalAlign=middle;resizable=0;points=[];autosize=1;strokeColor=none;fillColor=none;fontSize=18;fontColor=#99CCFF;" vertex="1" parent="1">
          <mxGeometry x="1210" y="168" width="100" height="26" as="geometry" />
        </mxCell>
        <mxCell id="8lfY5L09jLnos-yv3J4h-29" value="&lt;font color=&quot;#000000&quot;&gt;10.1.0.0/24&lt;/font&gt;" style="text;html=1;align=center;verticalAlign=middle;resizable=0;points=[];autosize=1;strokeColor=none;fillColor=none;fontSize=18;fontColor=#99CCFF;" vertex="1" parent="1">
          <mxGeometry x="612" y="248" width="100" height="26" as="geometry" />
        </mxCell>
      </root>
    </mxGraphModel>
  </diagram>
</mxfile>
